<?xml version="1.0" encoding="utf-8"?>
<!-- Generator: Adobe Illustrator 24.0.3, SVG Export Plug-In . SVG Version: 6.00 Build 0)  -->
<svg version="1.1" id="Layer_1" xmlns="http://www.w3.org/2000/svg" xmlns:xlink="http://www.w3.org/1999/xlink" x="0px" y="0px"
	 viewBox="0 0 578 90" style="enable-background:new 0 0 578 90;" xml:space="preserve">
<style type="text/css">
	.st0{fill:#202632;}
	.st1{fill:#00C389;}
</style>
<g>
	<polygon class="st0" points="87.1,86.4 105.1,86.4 105.1,52.8 134.3,52.8 134.3,38 105.1,38 105.1,20.3 139.1,20.3 139.1,4.6 
		87.1,4.6 	"/>
	<path class="st0" d="M157.2,6.4c-5,0-9.3,4.1-9.3,9.3s4.3,9.3,9.3,9.3c5,0,9.3-4.1,9.3-9.3C166.5,10.7,162.2,6.4,157.2,6.4z"/>
	<path class="st0" d="M212.2,29.6c-7,0-12.8,2.9-17.3,6.4l-0.2-0.2v-5h-17v55.8H195V49c3.1-2.4,7.2-4.6,11.6-4.6
		c2.4,0,4.4,0.6,6,2.4c1.4,1.5,2,3.7,2,7.8v31.9h17.3V51.8c0-8.1-1.5-12.8-4.9-16.5C223.2,31.6,218,29.6,212.2,29.6z"/>
	<path class="st0" d="M336.2,29.6c-7,0-12.8,2.9-17.3,6.4l-0.2-0.2v-5h-17v55.8h17.3V49c3.1-2.4,7.2-4.6,11.6-4.6
		c2.4,0,4.4,0.6,6,2.4c1.4,1.5,2,3.7,2,7.8v31.9h17.3V51.8c0-8.1-1.5-12.8-4.9-16.5C347.2,31.6,342,29.6,336.2,29.6z"/>
	<path class="st0" d="M283.5,35c-4.4-3.7-11.2-5.3-18.6-5.3c-8.1,0-15,2-19.4,4.3l0,0l4,13c3.7-1.5,7.8-2.6,12.4-2.6
		c4.1,0,7,0.9,8.6,2.4c1.2,1.1,2.1,3.2,2.1,6v2.1c-3.1-0.6-6.3-1.1-9.6-1.1c-5.8,0-11.3,1.1-15.6,4c-4,2.7-6.7,7.3-6.7,13.4
		c0,5.8,2.4,10.2,6.6,13c3.7,2.4,8.1,3.7,12.8,3.7c6.4,0,11.9-2,15.6-4.6h0.2c3.1,3.2,7.5,3.5,12.1,3.5c0.8,0,1.4,0,2-0.2V69.2V50.2
		C289.8,43.2,287.8,38.3,283.5,35z M272.5,72.8c-2,1.2-4.9,2.3-7.8,2.3c-4,0-7.2-2-7.2-5.5c0-4.3,4.4-5.7,8.9-5.7
		c1.8,0,4.3,0.2,6.1,0.8V72.8z"/>
	<path class="st0" d="M397.9,73.1c-9.3,0-15.7-6-15.7-14.5c0-8.4,6.4-14.7,15.6-14.7c3.8,0,7.8,1.1,11.6,2.9l4.1-13.6
		c-4.6-2.3-10.2-3.7-16.5-3.7c-17.4,0-31.9,11.6-31.9,29.2c0,16.8,13.1,29,31,29c6.4,0,12.8-1.4,18.2-4.3l-4.1-13.3
		C406.3,72.1,401.9,73.1,397.9,73.1z"/>
	<path class="st0" d="M446.9,29.6c-15.4,0-29.2,11.6-29.2,29.3c0,17.4,13.3,28.9,31.6,28.9c7.3,0,15.7-1.7,21.2-5l-3.8-12.2
		c-4.9,2.6-10.2,4-15.1,4c-7.9,0-14.2-3.5-16.2-11.2h37.7c0.2-1.5,0.3-4,0.3-6C473.5,38.6,460.7,29.6,446.9,29.6z M435.3,52.4
		c1.5-6.3,6.1-9.6,11.5-9.6c5.5,0,9.9,3.7,11,9.6H435.3z"/>
	<g>
		<path class="st0" d="M518.4,30.8h-9V45h9v20.5c0,8.9,2,13.4,4.9,16.6c3.5,3.7,8.9,5.5,14.5,5.5c4.9,0,9.9-1.4,12.5-3.1l0,0
			l-3.8-12.2c-1.5,0.5-3.1,0.8-4.6,0.8c-5.2,0-6.4-4.1-6.4-9.5V45h14.7V30.8h-14.7V13.4l-17.3,3.5v13.9"/>
	</g>
	<path class="st1" d="M566.5,68.9c5,0,9.3,4.1,9.3,9.3c0,5.2-4.3,9.3-9.3,9.3s-9.3-4.1-9.3-9.3C557.4,73,561.5,68.9,566.5,68.9z"/>
	<polygon class="st0" points="482.5,86.4 499.6,86.4 499.6,30.8 482.5,34.3 	"/>
	<polygon class="st0" points="148.6,86.4 165.7,86.4 165.7,30.8 148.6,34.3 	"/>
	<path class="st1" d="M491.1,6.4c-5,0-9.3,4.1-9.3,9.3s4.3,9.3,9.3,9.3c5,0,9.3-4.1,9.3-9.3C500.4,10.7,496.1,6.4,491.1,6.4z"/>
</g>
<g>
	<g>
		<g>
			<g>
				<g>
					<g>
						<path class="st1" d="M59.3,19.2l-16.5-16H19.2l-16.5,16v43.1l56.5-29.6V19.2z M31,28.7c-4.3,0-7.8-3.5-7.8-7.8
							s3.5-7.8,7.8-7.8s7.8,3.5,7.8,7.8C38.8,25.3,35.3,28.7,31,28.7z"/>
					</g>
				</g>
				<g>
					<polygon class="st1" points="2.7,75.9 2.7,86.4 59.3,86.4 59.3,46.3 					"/>
				</g>
			</g>
		</g>
	</g>
</g>
</svg>
